<svg id="Capa_1" enable-background="new 0 0 512 512" height="512" viewBox="0 0 512 512" width="512" xmlns="http://www.w3.org/2000/svg"><g><g><path clip-rule="evenodd" d="m285.749 230.911c32.796 0 41.555 7.569 66.5 26.532 9.808 7.484 17.178 12.671 23.414 16.299 2.835-10.658 8.986-23.301 31.294-42.208l95.043-83.282-86.313-110.439-101.025 88.442c-21.146 18.482-25.029 22.224-66.074 25.058-31.237 2.154-42.831 2.239-67.492 23.84l-31.096 27.184c-9.864 8.674-10.885 23.84-2.239 33.704l.227.227c12.189-3.458 25.058-2.268 33.306 3.373-.113-37.389 69.533-70.697 95.724-8.731h8.731z" fill="#f5c6af" fill-rule="evenodd"/></g><g><path clip-rule="evenodd" d="m10 130.167c0 32.287 26.163 58.479 58.478 58.479 32.286 0 58.478-26.192 58.478-58.479 0-9.383-2.211-18.227-6.151-26.079-10.771-21.629-37.785-56.977-52.327-78.69-14.57 21.714-41.555 57.062-52.355 78.69-3.912 7.852-6.123 16.696-6.123 26.079z" fill="#33d6f5" fill-rule="evenodd"/></g><g><path clip-rule="evenodd" d="m327.701 449.379c41.243 0 25.71-28.403 90.764-27.298h82.505v-139.976h-82.505c-19.672 0-28.204.113-42.802-8.362-6.236-3.628-13.606-8.816-23.414-16.299-24.944-18.964-33.703-26.532-66.5-26.532h-8.731-32.569c-13.124 0-23.867 10.743-23.867 23.896 0 12.529 9.779 22.904 22.11 23.811h-70.383c-12.104 0-22.025 9.921-22.025 22.025 0 12.076 9.864 21.969 21.911 22.025h-36.113c-12.104 0-22.025 9.921-22.025 22.054 0 12.104 9.921 22.025 22.025 22.025h21.316c-12.104 0-22.025 9.921-22.025 22.025 0 12.132 9.921 22.025 22.025 22.025h30.358c-10.601 0-19.275 8.702-19.275 19.304s8.674 19.276 19.275 19.276h38.465 101.48z" fill="#f2b394" fill-rule="evenodd"/></g><g><path clip-rule="evenodd" d="m72.503 399.46c0 20.183 15.08 36.822 34.582 39.26-4.025 15.591 10.318 48.87 44.702 40.564 4.819 2.976 9.893 4.961 14.967 6.095h21.43c18.708-4.054 34.582-18.255 38.04-36h-38.465c-10.601 0-19.275-8.674-19.275-19.276s8.674-19.304 19.275-19.304h-30.358c-12.104 0-22.025-9.893-22.025-22.025 0-12.104 9.921-22.025 22.025-22.025h-21.316c-12.104 0-22.025-9.921-22.025-22.025 0-12.132 9.921-22.054 22.025-22.054h36.113c-12.047-.057-21.911-9.95-21.911-22.025 0-12.104 9.921-22.025 22.025-22.025h70.383c-12.33-.907-22.11-11.282-22.11-23.811 0-13.153 10.743-23.896 23.867-23.896h32.569c-26.192-61.966-95.838-28.658-95.724 8.731-8.249-5.641-21.118-6.832-33.306-3.373-14.456 4.11-28.006 14.769-31.804 32.287-25.398-12.047-70.184 23.811-54.906 58.224-22.592 17.943-15.278 61.994 11.423 68.656-.145 1.329-.201 2.662-.201 4.022z" fill="#99ebfa" fill-rule="evenodd"/></g><g><path d="m136.955 130.167c0-10.742-2.427-21.025-7.2-30.537-7.872-15.807-23.543-37.92-37.37-57.431-5.808-8.195-11.293-15.936-15.599-22.366-1.855-2.771-4.97-4.434-8.305-4.436-3.312.029-6.45 1.66-8.308 4.428-4.28 6.378-9.715 14.046-15.469 22.164-13.879 19.581-29.61 41.775-37.532 57.64-4.759 9.553-7.172 19.827-7.172 30.538 0 37.759 30.719 68.479 68.478 68.479s68.477-30.72 68.477-68.479zm-116.955 0c0-7.588 1.707-14.862 5.069-21.612 7.23-14.481 22.49-36.007 35.952-55 2.568-3.623 5.073-7.157 7.451-10.542 2.421 3.449 4.976 7.054 7.595 10.75 13.407 18.918 28.603 40.361 35.798 54.81 3.377 6.729 5.089 13.995 5.089 21.594 0 26.731-21.747 48.479-48.478 48.479s-48.476-21.748-48.476-48.479z"/><path d="m383.632 75.876c2.338 0 4.686-.815 6.583-2.476l32.059-28.063c4.155-3.638 4.575-9.956.938-14.111-3.639-4.156-9.954-4.576-14.111-.938l-32.059 28.063c-4.155 3.638-4.575 9.956-.938 14.111 1.977 2.26 4.745 3.414 7.528 3.414z"/><path d="m244.449 240.911h41.3c28.283 0 35.149 5.229 57.899 22.554l2.544 1.936c33.86 25.77 41.414 26.704 71.292 26.704h.135 83.35c5.522 0 10-4.477 10-10s-4.478-10-10-10h-83.351c-13.805-.011-21.276-.015-29.589-3.309 3.451-7.437 10.252-16.801 25.393-29.633.042-.036.083-.072.125-.108l95.044-83.283c4.153-3.64 4.57-9.958.931-14.111-3.641-4.154-9.957-4.57-14.112-.931l-94.98 83.228c-16.677 14.145-25.085 25.367-29.742 34.695-3.595-2.545-7.655-5.568-12.387-9.17l-2.534-1.929c-23.293-17.739-34.985-26.643-70.017-26.643h-2.376c-13.511-26.339-36.895-38.713-63.652-33.248-21.759 4.444-39.715 19.929-46.013 38.016-6.527-1.555-13.747-1.784-21.017-.655-1.871-5.213-.512-11.287 3.891-15.159l31.103-27.191c21.278-18.637 29.895-19.224 58.446-21.17l3.146-.215c42.495-2.935 48.751-7.211 71.312-26.933l6.452-5.659c4.151-3.643 4.563-9.961.921-14.112s-9.961-4.563-14.112-.921l-6.424 5.634c-19.731 17.249-22.267 19.465-59.525 22.039l-3.129.214c-29.232 1.993-43.905 2.993-70.256 26.073l-31.117 27.204c-10.607 9.327-13.998 23.858-9.714 36.453-10.917 5.722-19.253 14.478-24.008 25.164-14.291-1.724-30.761 4.519-43.854 17.287-14.81 14.442-20.639 33.153-16.089 50.286-10.135 11.506-14.257 28.679-10.561 45.74 3.218 14.854 11.892 26.679 23.41 32.506 1.154 20.486 14.856 37.971 33.894 44.268.597 10.96 5.717 22.92 13.912 31.244 10.291 10.453 24.273 14.663 39.719 12.056 8.553 4.501 17.866 6.771 27.313 6.771 8.314 0 16.733-1.759 24.821-5.304 14.946-6.55 26.227-18.155 31.459-31.92h94.003c21.579 0 30.996-7.262 39.305-13.669 9.046-6.976 18.418-14.186 51.289-13.63.057.001.113.001.17.001h82.504c5.522 0 10-4.477 10-10s-4.478-10-10-10h-82.417c-39.854-.67-53.097 9.568-63.759 17.791-7.424 5.725-12.328 9.507-27.092 9.507h-101.566c-.011 0-.022 0-.033 0h-38.349c-5.114 0-9.275-4.161-9.275-9.276 0-5.043 4.248-9.304 9.275-9.304h65.337c5.522 0 10-4.477 10-10s-4.478-10-10-10h-95.696c-6.63 0-12.025-5.395-12.025-12.025s5.395-12.025 12.025-12.025h90.877c5.523 0 10-4.477 10-10s-4.477-10-10-10h-112.192c-6.63 0-12.025-5.395-12.025-12.025 0-6.646 5.395-12.054 12.025-12.054h36.226 71.432c5.523 0 10-4.477 10-10s-4.477-10-10-10h-71.432c-6.63 0-12.025-5.395-12.025-12.025s5.395-12.025 12.025-12.025h107.658c5.522 0 10-4.477 10-10s-4.478-10-10-10h-36.636c-7.124-.573-12.749-6.542-12.749-13.812 0-7.663 6.221-13.897 13.867-13.897zm-33.867 13.896c0 4.918 1.062 9.59 2.956 13.812h-41.229c-17.659 0-32.025 14.366-32.025 32.025 0 4.252.84 8.31 2.351 12.025h-6.553c-17.659 0-32.025 14.379-32.025 32.054 0 14.922 10.259 27.492 24.094 31.03-1.779 3.981-2.777 8.385-2.777 13.021 0 17.659 14.366 32.025 32.025 32.025h2.604c-.982 2.926-1.521 6.052-1.521 9.304 0 16.143 13.133 29.276 29.275 29.276h23.412c-4.016 5.691-9.908 10.513-16.957 13.603-12.473 5.466-26.025 4.661-37.182-2.211-2.269-1.398-5.002-1.833-7.593-1.206-10.223 2.469-18.566.511-24.798-5.819-7.076-7.187-9.118-17.699-7.872-22.524.719-2.784.205-5.743-1.412-8.121s-4.178-3.945-7.031-4.302c-14.721-1.84-25.822-14.453-25.822-29.337 0-1.097.046-2.068.142-2.969.527-4.961-2.683-9.552-7.523-10.759-9.373-2.338-14.619-11.973-16.403-20.209-2.688-12.408.757-24.542 8.779-30.914 3.569-2.834 4.77-7.723 2.92-11.888-7.341-16.535 5.314-30.718 9.367-34.671 10.105-9.854 23.91-14.352 32.113-10.46 2.756 1.307 5.958 1.285 8.697-.061 2.738-1.346 4.712-3.868 5.36-6.849 3.146-14.46 14.396-20.896 20.822-23.444 10.414-4.131 22.282-3.863 28.86.651 3.066 2.103 7.044 2.333 10.331.595 3.287-1.737 5.338-5.154 5.327-8.871-.042-13.938 14.808-28.753 32.429-32.352 9.005-1.841 24.139-1.826 36.148 13.652h-15.422c-18.675-.002-33.867 15.204-33.867 33.894z"/><path d="m352.021 103.543c2.56 0 5.118-.976 7.071-2.929l.028-.028c3.905-3.905 3.891-10.223-.015-14.128s-10.251-3.889-14.156.014c-3.905 3.905-3.905 10.237 0 14.143 1.954 1.952 4.513 2.928 7.072 2.928z"/></g></g></svg>